<?xml version='1.0' encoding='UTF-8'?>
<svg xmlns="http://www.w3.org/2000/svg" width="900" height="660" viewBox="0 0 900 660">
  <defs>
    <linearGradient id="bg" x1="0%" y1="0%" x2="0%" y2="100%">
      <stop offset="0%" style="stop-color:#0d1117"/>
      <stop offset="100%" style="stop-color:#010409"/>
    </linearGradient>
    <mask id="typing-echo" maskUnits="userSpaceOnUse">
      <rect x="45" y="57" width="0" height="18" fill="white">
        <animate attributeName="width" values="0;9;18;27;36;45;54;63;72;81;90;99;108;117" dur="2.2s" repeatCount="indefinite" calcMode="discrete"/>
      </rect>
    </mask>
  </defs>

  <rect width="900" height="660" fill="url(#bg)" rx="10"/>
  <rect x="0.5" y="0.5" width="899" height="659" rx="10" fill="none" stroke="#30363d" stroke-width="1"/>

  <path d="M0 10C0 4.47715 4.47715 0 10 0H890C895.523 0 900 4.47715 900 10V35H0V10Z" fill="#161b22"/>
  
  <text x="450" y="22" font-family="Consolas, monospace" font-size="12" fill="#8b949e" text-anchor="middle">anirudw — zsh — 80×24</text>

  <text x="25" y="70" font-family="Consolas, 'Courier New', monospace" font-size="14" fill="#58a6ff" font-weight="bold">❯</text>
  <text x="45" y="70" font-family="Consolas, 'Courier New', monospace" font-size="14" fill="#c9d1d9" mask="url(#typing-echo)">
    <tspan fill="#d2a8ff">echo</tspan><tspan fill="#8b949e"> </tspan><tspan fill="#7ee787">anirudh</tspan>
  </text>

  <g transform="translate(0,25)" font-family="Consolas, 'Courier New', monospace" font-size="14">
    <text x="25" y="70" fill="#58a6ff" font-weight="bold">❯</text>
    <text x="45" y="70" fill="#58a6ff">whoami</text>

    <text x="45" y="95" fill="#8b949e">Computer Science student at CET, Kerala.</text>
    <text x="45" y="115" fill="#8b949e">Data Science | Machine Learning | Open Source</text>

    <text x="25" y="149" fill="#58a6ff" font-weight="bold">❯</text>
    <text x="45" y="149" fill="#c9d1d9">
      <tspan fill="#7ee787">fetch-stats</tspan><tspan fill="#8b949e"> --github</tspan>
    </text>

    <text x="45" y="176" fill="#8b949e">commits: </text>
    <text id="commits" x="220" y="176" fill="#ff7b72" font-weight="bold">83</text>
    <text x="45" y="199" fill="#8b949e">repositories: </text>
    <text id="repos" x="220" y="199" fill="#f2cc60" font-weight="bold">31</text>
    <text x="45" y="222" fill="#8b949e">stars: </text>
    <text id="stars" x="220" y="222" fill="#79c0ff" font-weight="bold">3</text>

    <text x="25" y="248" fill="#58a6ff" font-weight="bold">❯</text>
    <text x="45" y="248" fill="#c9d1d9">
      <tspan fill="#d2a8ff">stack</tspan><tspan fill="#8b949e"> --skills</tspan>
    </text>
    <text x="45" y="275" fill="#8b949e">
      <tspan fill="#58a6ff">datascience/ml:</tspan>
      <tspan fill="#c9d1d9"> Python, </tspan>
      <tspan fill="#7ee787">Pandas</tspan>
      <tspan fill="#c9d1d9">, </tspan>
      <tspan fill="#79c0ff">NumPy</tspan>
      <tspan fill="#c9d1d9">, </tspan>
      <tspan fill="#d2a8ff">scikit-learn</tspan>
      
    </text>

    <text x="45" y="298" fill="#8b949e">
      <tspan fill="#58a6ff">frontend:</tspan>
      <tspan fill="#c9d1d9"> JavaScript, </tspan>
      <tspan fill="#d2a8ff">React</tspan>
    </text>
    <text x="45" y="321" fill="#8b949e">
      <tspan fill="#58a6ff">tools:</tspan>
      <tspan fill="#c9d1d9"> Git, </tspan>
      <tspan fill="#7ee787">Linux</tspan>
      <tspan fill="#c9d1d9">, </tspan>
      <tspan fill="#f2cc60">Figma</tspan>
    </text>

    <text x="25" y="370" fill="#58a6ff" font-weight="bold">❯</text>
    <text x="45" y="370" fill="#c9d1d9"><tspan fill="#79c0ff">top</tspan><tspan fill="#8b949e"> --sort-by "usage" -n 5</tspan></text>
    
    <text x="45" y="395" fill="#8b949e" font-size="12" text-decoration="underline">LANG</text>
    <text x="180" y="395" fill="#8b949e" font-size="12" text-decoration="underline">USAGE</text>
    <text x="400" y="395" fill="#8b949e" font-size="12" text-decoration="underline">PCT</text>

    <text id="lang_name_0" x="45" y="415" fill="#c9d1d9" font-size="12">TypeScript</text>
    <text x="170" y="415" fill="#8b949e" font-size="12">[</text>
    <rect x="180" y="407" width="200" height="8" fill="#161b22" rx="0"/>
    <rect id="lang_bar_0" x="180" y="407" width="119" height="8" fill="#58a6ff" rx="0"/>
    <text x="385" y="415" fill="#8b949e" font-size="12">]</text>
    <text id="lang_pct_0" x="400" y="415" fill="#58a6ff" font-size="12">59.9%</text>

    <text id="lang_name_1" x="45" y="435" fill="#c9d1d9" font-size="12">JavaScript</text>
    <text x="170" y="435" fill="#8b949e" font-size="12">[</text>
    <rect x="180" y="427" width="200" height="8" fill="#161b22" rx="0"/>
    <rect id="lang_bar_1" x="180" y="427" width="39" height="8" fill="#d2a8ff" rx="0"/>
    <text x="385" y="435" fill="#8b949e" font-size="12">]</text>
    <text id="lang_pct_1" x="400" y="435" fill="#d2a8ff" font-size="12">19.7%</text>

    <text id="lang_name_2" x="45" y="455" fill="#c9d1d9" font-size="12">CSS</text>
    <text x="170" y="455" fill="#8b949e" font-size="12">[</text>
    <rect x="180" y="447" width="200" height="8" fill="#161b22" rx="0"/>
    <rect id="lang_bar_2" x="180" y="447" width="26" height="8" fill="#f2cc60" rx="0"/>
    <text x="385" y="455" fill="#8b949e" font-size="12">]</text>
    <text id="lang_pct_2" x="400" y="455" fill="#f2cc60" font-size="12">13.4%</text>

    <text id="lang_name_3" x="45" y="475" fill="#c9d1d9" font-size="12">HTML</text>
    <text x="170" y="475" fill="#8b949e" font-size="12">[</text>
    <rect x="180" y="467" width="200" height="8" fill="#161b22" rx="0"/>
    <rect id="lang_bar_3" x="180" y="467" width="4" height="8" fill="#ff7b72" rx="0"/>
    <text x="385" y="475" fill="#8b949e" font-size="12">]</text>
    <text id="lang_pct_3" x="400" y="475" fill="#ff7b72" font-size="12">2.4%</text>

    <text id="lang_name_4" x="45" y="495" fill="#c9d1d9" font-size="12">Python</text>
    <text x="170" y="495" fill="#8b949e" font-size="12">[</text>
    <rect x="180" y="487" width="200" height="8" fill="#161b22" rx="0"/>
    <rect id="lang_bar_4" x="180" y="487" width="3" height="8" fill="#27c93f" rx="0"/>
    <text x="385" y="495" fill="#8b949e" font-size="12">]</text>
    <text id="lang_pct_4" x="400" y="495" fill="#27c93f" font-size="12">1.8%</text>

    <text x="25" y="544" fill="#58a6ff" font-weight="bold">❯</text>
    <text x="45" y="544" fill="#c9d1d9">
      <tspan fill="#ff7b72">connect</tspan><tspan fill="#8b949e"> --contacts</tspan>
    </text>

    <text x="45" y="571" fill="#8b949e">github: https://github.com/anirudw</text>
    <text x="45" y="594" fill="#8b949e">linkedin: https://linkedin.com/in/anirudh-s-nair</text>

    <text x="25" y="619" fill="#58a6ff" font-weight="bold">❯</text>
    <rect x="45" y="606" width="8" height="16" fill="#c9d1d9">
      <animate attributeName="opacity" values="1;0;1" dur="1s" repeatCount="indefinite"/>
    </rect>

  </g>
</svg>
